<svg xmlns="http://www.w3.org/2000/svg" width="64" height="64" viewBox="0 0 64 64"><rect width="64" height="64" rx="16" fill="#ffc2d1"/><circle cx="12" cy="12" r="3" fill="#fff" opacity=".8"/><circle cx="53" cy="54" r="2.5" fill="#fff" opacity=".8"/><path d="M22 18.5a3 3 0 0 1 2.7-1.7h14.6a3 3 0 0 1 2.7 1.7l1.6 3.3H50a5 5 0 0 1 5 5V45a5 5 0 0 1-5 5H14a5 5 0 0 1-5-5V26.8a5 5 0 0 1 5-5h6.4z" fill="#4a1f2c"/><circle cx="32" cy="35.5" r="10.5" fill="#fff6f8"/><circle cx="32" cy="35.5" r="7" fill="#ff6f91"/><circle cx="29.4" cy="32.8" r="2.2" fill="#fff"/><rect x="45" y="26" width="5" height="3.4" rx="1.7" fill="#ffd84d"/><path d="M15.5 21.8v-2.3a1.6 1.6 0 0 1 1.6-1.6h1.5a1.6 1.6 0 0 1 1.6 1.6v2.3z" fill="#4a1f2c"/></svg>
